/* XPM */
static char * min_xpm[] = {
"16 15 3 1",
" 	c None",
".	c #242526",
"+	c #FAFAFA",
"................",
"................",
"................",
"................",
"................",
".....++.........",
".....++.........",
"................",
"................",
".....++..++.....",
".....++..++.....",
"................",
"................",
"................",
"................"};
