/* XPM */
static char * close_xpm[] = {
"16 15 3 1",
" 	c None",
".	c #FAFAFA",
"+	c #990000",
"................",
"................",
"................",
"................",
"....+++..+++....",
"....+++..+++....",
"....+++..+++....",
"................",
"................",
"....+++..+++....",
"....+++..+++....",
"....+++..+++....",
"................",
"................",
"................"};
