/* XPM */
static char * max_xpm[] = {
"16 15 3 1",
" 	c None",
".	c #FAFAFA",
"+	c #73BA25",
"................",
"................",
"................",
"................",
"....+++..+++....",
"....+++..+++....",
"....+++..+++....",
"................",
"................",
".........+++....",
".........+++....",
".........+++....",
"................",
"................",
"................"};
