/* XPM */
static char * min_pressed_xpm[] = {
"16 15 3 1",
" 	c None",
".	c #FAFAFA",
"+	c #FFBC00",
"................",
"................",
"................",
"................",
"....+++.........",
"....+++.........",
"....+++.........",
"................",
"................",
".........+++....",
".........+++....",
"..+++....+++....",
"..+++...........",
"..+++...........",
"................"};
