/* XPM */
static char * select_xpm[] = {
"13 16 3 1",
" 	c None",
".	c #B8B8B8",
"+	c #272727",
"             ",
"             ",
"             ",
"             ",
"             ",
"    .....    ",
"    .   .    ",
"    . + .    ",
"    .   .    ",
"    .....    ",
"             ",
"             ",
"             ",
"             ",
"             ",
"             "};
